<?xml version="1.0" standalone="no"?>
<!DOCTYPE svg PUBLIC "-//W3C//DTD SVG 20010904//EN" "http://www.w3.org/TR/2001/REC-SVG-20010904/DTD/svg10.dtd">
<svg version="1.0" xmlns="http://www.w3.org/2000/svg" 
width="100%" height="100%" viewBox="0 0 1111.000000 910.000000" preserveAspectRatio="xMaxYMin meet">

 <defs>
    <linearGradient id="gradient" x1="0%" y1="0%" x2="0%" y2="100%">
      <stop offset="0%" style="stop-color:rgb(66,85,233);stop-opacity:1" />
      <stop offset="100%" style="stop-color:rgb(141,85,234);stop-opacity:1" />
    </linearGradient>
  </defs>
 
<g transform="translate(0.000000,910.000000) scale(0.100000,-0.100000)"
fill="url(#gradient)" stroke="none">
<path d="M32 9092 c5 -11 182 -341 243 -452 29 -52 72 -131 95 -175 57 -106
218 -403 290 -535 31 -58 79 -145 105 -195 26 -49 87 -162 135 -250 75 -137
146 -268 315 -580 18 -33 47 -87 65 -120 80 -149 123 -228 268 -495 84 -157
186 -343 224 -415 39 -71 99 -182 133 -245 109 -202 327 -603 360 -665 48 -89
164 -303 195 -360 140 -258 224 -413 260 -480 24 -44 53 -98 65 -120 23 -41
36 -65 165 -305 40 -74 80 -148 90 -165 9 -16 41 -75 70 -130 29 -55 56 -104
60 -110 4 -5 30 -53 57 -105 48 -90 74 -138 240 -445 81 -150 230 -421 262
-480 13 -22 60 -97 106 -166 718 -1083 2130 -1907 3535 -2063 388 -43 555 -43
930 0 186 22 332 53 1355 294 99 24 225 53 280 65 144 33 641 148 840 195 94
22 184 43 200 46 17 4 54 13 83 21 l52 14 0 4215 0 4214 -5541 0 c-3047 0
-5539 -4 -5537 -8z"/>
</g>

</svg>
