<?xml version="1.0" encoding="utf-8"?>
<!-- Generator: Adobe Illustrator 22.1.0, SVG Export Plug-In . SVG Version: 6.00 Build 0)  -->
<svg version="1.1" id="Layer_1" xmlns="http://www.w3.org/2000/svg" xmlns:xlink="http://www.w3.org/1999/xlink" x="0px" y="0px"
	 viewBox="0 0 20 20" style="enable-background:new 0 0 20 20;" xml:space="preserve">
<style type="text/css">
	.st0{fill:#FFFFFF;}
</style>
<path class="st0" d="M10,0.2c-5.5,0-10,4.5-10,10c0,4.5,2.8,8.1,6.9,9.5c0.5,0.1,0.7-0.3,0.7-0.5c0-0.3,0-0.8,0-1.8
	C4.7,17.9,4.2,16,4.2,16C3.6,15.1,3,14.7,3,14.7C2,14,3.1,14.1,3.1,14.1c0.9,0.1,1.5,1.1,1.5,1.1c0.9,1.5,2.3,1.1,3,0.8
	c0.1-0.7,0.4-1.1,0.7-1.4c-2.2-0.3-4.6-1.1-4.6-5c0-1.1,0.4-2,1.1-2.7c-0.3-0.1-0.5-1.2,0-2.6c0,0,0.8-0.3,2.7,1.1
	C8.2,5.2,9.1,5.2,10,5.2c0.8,0,1.8,0.1,2.6,0.3c1.9-1.4,2.7-1.1,2.7-1.1c0.5,1.4,0.1,2.4,0.1,2.7c0.7,0.7,1.1,1.6,1.1,2.7
	c0,3.8-2.3,4.7-4.6,4.9c0.4,0.3,0.7,0.9,0.7,1.9c0,1.4,0,2.4,0,2.7s0.1,0.5,0.7,0.5c3.9-1.4,6.8-5,6.8-9.5C19.9,4.7,15.4,0.2,10,0.2
	z"/>
</svg>
