<svg id="Layer_1" data-name="Layer 1" xmlns="http://www.w3.org/2000/svg" viewBox="0 0 51 56.27" width="50" height="56"><defs><style>.cls-1{fill:none;stroke:#ddd;stroke-width:4px;}.cls-1,.cls-2{stroke-miterlimit:10;}.cls-2{fill:#ddd;stroke:#fff;stroke-width:2px;}.cls-3{fill:#7b5dde;}</style></defs><title>last-update</title><rect class="cls-1" x="2" y="10.27" width="47" height="44" rx="10" ry="10"/><rect class="cls-2" x="10.6" y="1" width="8.12" height="18.54" rx="3.17" ry="3.17"/><rect class="cls-2" x="32.02" y="1" width="8.12" height="18.54" rx="3.17" ry="3.17"/><path class="cls-3" d="M306.29,429.25a11.38,11.38,0,0,0,0,8.92,11.43,11.43,0,0,0,6.12,6.13,11.48,11.48,0,0,0,9.36-.18,11.15,11.15,0,0,0,4-3.06.57.57,0,0,0,.1-.34.46.46,0,0,0-.13-.3l-2.05-2.07a.52.52,0,0,0-.37-.13.48.48,0,0,0-.35.18,7.64,7.64,0,0,1-13.1-1.72,7.54,7.54,0,0,1,0-5.94,7.61,7.61,0,0,1,4.08-4.09,7.71,7.71,0,0,1,5.79-.07,7.22,7.22,0,0,1,2.39,1.52L320,430.16a.86.86,0,0,0-.21,1,.9.9,0,0,0,.89.6h6.7a.94.94,0,0,0,.68-.29.91.91,0,0,0,.28-.67v-6.71a.89.89,0,0,0-.6-.88.85.85,0,0,0-1,.21l-1.95,1.93a11.54,11.54,0,0,0-3.66-2.35,11.34,11.34,0,0,0-4.26-.83,11.2,11.2,0,0,0-4.46.92,11.37,11.37,0,0,0-6.12,6.12" transform="translate(-290.88 -399.74)"/></svg>