<?xml version="1.0" encoding="utf-8"?>
<!-- Generator: Adobe Illustrator 22.1.0, SVG Export Plug-In . SVG Version: 6.00 Build 0)  -->
<svg version="1.1" id="Capa_1" xmlns="http://www.w3.org/2000/svg" xmlns:xlink="http://www.w3.org/1999/xlink" x="0px" y="0px"
	 viewBox="0 0 512 512" style="enable-background:new 0 0 512 512;" xml:space="preserve">
<style type="text/css">
	.st0{fill:#E2E2ED;}
</style>
<g>
	<path class="st0" d="M220.4,39.1v85.4c0,11.6-9.4,21-21,21c-41.3,0-63.8,42.4-66.9,126.1h66.9c11.6,0,21,9.4,21,21V473
		c0,11.6-9.4,21-21,21H21c-11.6,0-21-9.4-21-21V292.5c0-40.1,4-76.9,12-109.4c8.2-33.3,20.7-62.5,37.2-86.6
		c17-24.8,38.3-44.3,63.3-57.8c25.2-13.7,54.5-20.6,87-20.6C211.1,18.1,220.4,27.5,220.4,39.1z M491,145.5c11.6,0,21-9.4,21-21V39.1
		c0-11.6-9.4-21-21-21c-32.5,0-61.8,6.9-86.9,20.6c-25,13.6-46.3,33-63.3,57.8c-16.5,24.1-29.1,53.3-37.2,86.6
		c-8,32.5-12,69.3-12,109.4v180.4c0,11.6,9.4,21,21,21H491c11.6,0,21-9.4,21-21V292.5c0-11.6-9.4-21-21-21h-66
		C428.1,187.9,450.3,145.5,491,145.5z"/>
</g>
</svg>
