<?xml version="1.0" encoding="utf-8"?>
<!-- Generator: Adobe Illustrator 22.1.0, SVG Export Plug-In . SVG Version: 6.00 Build 0)  -->
<svg version="1.1" id="Capa_1" xmlns="http://www.w3.org/2000/svg" xmlns:xlink="http://www.w3.org/1999/xlink" x="0px" y="0px"
	 viewBox="0 0 15 15" style="enable-background:new 0 0 15 15;" xml:space="preserve">
<style type="text/css">
	.st0{fill:#FFFFFF;}
</style>
<g>
	<path class="st0" d="M15,7c-0.2-3.7-3.2-6.7-7-7l0,0H7.5H7l0,0C3.3,0.3,0.3,3.3,0,7l0,0v0.5V8l0,0c0.2,3.7,3.2,6.7,7,7l0,0h0.5H8
		l0,0c3.7-0.2,6.7-3.2,7-7l0,0V7.5V7L15,7z M4.7,1.6C4.2,2.3,3.8,3.1,3.5,4H2C2.7,3,3.6,2.2,4.7,1.6z M1.5,5h1.8C3.1,5.6,3,6.3,3,7
		H1C1.1,6.3,1.2,5.6,1.5,5z M1,8h2c0,0.7,0.1,1.4,0.2,2H1.5C1.2,9.4,1.1,8.7,1,8z M2,11h1.5c0.3,0.9,0.7,1.7,1.2,2.4
		C3.6,12.8,2.7,12,2,11z M7,13.9c-1-0.3-1.9-1.4-2.4-2.9H7V13.9z M7,10H4.3C4.1,9.4,4,8.7,4,8h3V10z M7,7H4c0-0.7,0.1-1.4,0.3-2H7V7
		z M7,4H4.6C5.1,2.4,6,1.3,7,1.1V4z M13,4h-1.5c-0.3-0.9-0.7-1.7-1.2-2.4C11.4,2.2,12.3,3,13,4z M8,1.1C9,1.3,9.9,2.4,10.4,4H8V1.1z
		 M8,5h2.7C10.9,5.6,11,6.3,11,7H8V5z M8,8h3c0,0.7-0.1,1.4-0.3,2H8V8z M8,13.9V11h2.4C9.9,12.6,9,13.7,8,13.9z M10.3,13.4
		c0.5-0.6,0.9-1.4,1.2-2.4H13C12.3,12,11.4,12.8,10.3,13.4z M13.5,10h-1.8C11.9,9.4,12,8.7,12,8h2C13.9,8.7,13.8,9.4,13.5,10z M12,7
		c0-0.7-0.1-1.4-0.2-2h1.8c0.3,0.6,0.4,1.3,0.5,2H12z"/>
</g>
</svg>
