<?xml version="1.0" encoding="utf-8"?>
<!-- Generator: Adobe Illustrator 22.1.0, SVG Export Plug-In . SVG Version: 6.00 Build 0)  -->
<svg version="1.1" id="Capa_1" xmlns="http://www.w3.org/2000/svg" xmlns:xlink="http://www.w3.org/1999/xlink" x="0px" y="0px"
	 viewBox="0 0 47.9 47.9" style="enable-background:new 0 0 47.9 47.9;" xml:space="preserve">
<style type="text/css">
	.st0{fill:#D9D9D9;}
</style>
<path class="st0" d="M26.3,2.5l5.4,11c0.4,0.8,1.1,1.3,1.9,1.4l12.1,1.8c2.1,0.3,3,2.9,1.4,4.4l-8.7,8.5c-0.6,0.6-0.9,1.4-0.7,2.3
	l2.1,12c0.4,2.1-1.9,3.7-3.7,2.7l-10.8-5.7c-0.8-0.4-1.7-0.4-2.4,0L12,46.6c-1.9,1-4.1-0.6-3.7-2.7l2.1-12c0.1-0.8-0.1-1.7-0.7-2.3
	L0.8,21c-1.5-1.5-0.7-4.1,1.4-4.4l12.1-1.8c0.8-0.1,1.6-0.6,1.9-1.4l5.4-11C22.6,0.6,25.3,0.6,26.3,2.5z"/>
</svg>
